<svg width="949" height="222" viewBox="0 0 949 222" fill="none" xmlns="http://www.w3.org/2000/svg">
<path d="M51.5119 18.34C56.1785 18.34 59.7252 18.9 62.1519 20.02C64.5785 21.0467 66.7252 22.2133 68.5919 23.52C69.7119 24.1733 70.5985 24.6867 71.2519 25.06C71.9985 25.34 72.6985 25.48 73.3519 25.48C74.2852 25.48 74.9385 24.9667 75.3119 23.94C75.7785 22.9133 76.1519 21.3733 76.4319 19.32H79.6519C79.5585 20.9067 79.4185 22.82 79.2319 25.06C79.1385 27.2067 79.0452 30.1 78.9519 33.74C78.9519 37.2867 78.9519 42 78.9519 47.88H75.7319C75.4519 43.4 74.4719 39.1067 72.7919 35C71.1119 30.8933 68.6385 27.5333 65.3719 24.92C62.1985 22.3067 57.9985 21 52.7719 21C47.8252 21 43.7185 22.4933 40.4519 25.48C37.2785 28.4667 35.6919 32.3867 35.6919 37.24C35.6919 41.44 36.7652 44.9867 38.9119 47.88C41.0585 50.68 43.9052 53.2467 47.4519 55.58C51.0919 57.82 55.0119 60.2467 59.2119 62.86C64.0652 65.8467 68.3585 68.8333 72.0919 71.82C75.9185 74.7133 78.9052 77.9333 81.0519 81.48C83.2919 85.0267 84.4119 89.32 84.4119 94.36C84.4119 100.333 83.0585 105.28 80.3519 109.2C77.6452 113.12 74.0519 116.06 69.5719 118.02C65.0919 119.98 60.1452 120.96 54.7319 120.96C49.7852 120.96 45.8652 120.4 42.9719 119.28C40.0785 118.16 37.6052 116.993 35.5519 115.78C33.4985 114.473 31.9119 113.82 30.7919 113.82C29.8585 113.82 29.1585 114.333 28.6919 115.36C28.3185 116.387 27.9919 117.927 27.7119 119.98H24.4919C24.6785 118.02 24.7719 115.733 24.7719 113.12C24.8652 110.413 24.9119 106.913 24.9119 102.62C25.0052 98.3267 25.0519 92.9133 25.0519 86.38H28.2719C28.6452 91.98 29.6719 97.2067 31.3519 102.06C33.1252 106.913 35.7852 110.833 39.3319 113.82C42.9719 116.713 47.7785 118.16 53.7519 118.16C56.8319 118.16 59.7252 117.553 62.4319 116.34C65.2319 115.033 67.5185 113.027 69.2919 110.32C71.0652 107.52 71.9519 103.927 71.9519 99.54C71.9519 95.7133 71.0185 92.4 69.1519 89.6C67.3785 86.7067 64.8585 84.0467 61.5919 81.62C58.3252 79.1 54.4985 76.5333 50.1119 73.92C45.7252 71.2133 41.6185 68.46 37.7919 65.66C33.9652 62.86 30.8852 59.64 28.5519 56C26.3119 52.2667 25.1919 47.7867 25.1919 42.56C25.1919 37.0533 26.4052 32.5267 28.8319 28.98C31.3519 25.34 34.6185 22.68 38.6319 21C42.6452 19.2267 46.9385 18.34 51.5119 18.34ZM117.877 23.66V47.04H138.597V49.84H117.877V104.02C117.877 108.407 118.671 111.487 120.257 113.26C121.844 115.033 124.037 115.92 126.837 115.92C129.637 115.92 132.064 114.8 134.117 112.56C136.171 110.227 137.944 106.353 139.437 100.94L142.237 101.64C141.304 107.053 139.437 111.627 136.637 115.36C133.931 119.093 129.731 120.96 124.037 120.96C120.864 120.96 118.251 120.54 116.197 119.7C114.144 118.953 112.324 117.833 110.737 116.34C108.684 114.193 107.237 111.627 106.397 108.64C105.651 105.653 105.277 101.687 105.277 96.74V49.84H91.8373V47.04H105.277V25.62C107.611 25.5267 109.851 25.34 111.997 25.06C114.144 24.78 116.104 24.3133 117.877 23.66ZM209.93 46.9V49.7C208.156 49.8867 206.523 50.68 205.03 52.08C203.536 53.48 202.136 55.9533 200.83 59.5L177.87 119.7H175.49L149.73 57.68C147.956 54.04 146.183 51.8467 144.41 51.1C142.73 50.26 141.33 49.84 140.21 49.84V46.9C142.263 47.18 144.41 47.4133 146.65 47.6C148.89 47.6933 151.316 47.74 153.93 47.74C156.823 47.74 159.856 47.6467 163.03 47.46C166.296 47.2733 169.33 47.0867 172.13 46.9V49.84C169.796 49.84 167.696 50.0267 165.83 50.4C164.056 50.68 162.936 51.66 162.47 53.34C162.003 54.9267 162.563 57.68 164.15 61.6L181.37 104.3L180.53 104.58L196.49 62.86C197.703 59.78 198.17 57.3533 197.89 55.58C197.703 53.7133 196.77 52.3133 195.09 51.38C193.41 50.4467 190.89 49.8867 187.53 49.7V46.9C189.21 46.9933 190.656 47.0867 191.87 47.18C193.083 47.18 194.25 47.2267 195.37 47.32C196.583 47.32 197.89 47.32 199.29 47.32C201.436 47.32 203.35 47.2733 205.03 47.18C206.803 47.0867 208.436 46.9933 209.93 46.9ZM177.87 119.7L173.11 131.88C172.176 134.213 171.196 136.173 170.17 137.76C169.236 139.347 168.21 140.653 167.09 141.68C165.596 143.08 163.823 144.013 161.77 144.48C159.716 145.04 157.85 145.32 156.17 145.32C154.396 145.32 152.763 144.993 151.27 144.34C149.87 143.687 148.75 142.707 147.91 141.4C147.07 140.187 146.65 138.693 146.65 136.92C146.65 134.68 147.303 132.86 148.61 131.46C149.916 130.153 151.736 129.5 154.07 129.5C156.03 129.5 157.71 130.06 159.11 131.18C160.51 132.3 161.21 133.933 161.21 136.08C161.21 137.667 160.836 138.973 160.09 140C159.343 141.027 158.456 141.82 157.43 142.38C157.616 142.473 157.756 142.52 157.85 142.52C158.036 142.52 158.176 142.52 158.27 142.52C160.79 142.52 163.03 141.633 164.99 139.86C166.95 138.18 168.676 135.427 170.17 131.6L175.21 118.58L177.87 119.7ZM234.082 9.23999V105.98C234.082 109.9 234.875 112.56 236.462 113.96C238.142 115.36 240.895 116.06 244.722 116.06V119C243.135 118.907 240.708 118.813 237.442 118.72C234.268 118.533 231.048 118.44 227.782 118.44C224.608 118.44 221.388 118.533 218.122 118.72C214.855 118.813 212.428 118.907 210.842 119V116.06C214.668 116.06 217.375 115.36 218.962 113.96C220.642 112.56 221.482 109.9 221.482 105.98V26.04C221.482 21.84 220.735 18.76 219.242 16.8C217.748 14.7467 214.948 13.72 210.842 13.72V10.78C213.828 11.06 216.722 11.2 219.522 11.2C222.228 11.2 224.795 11.06 227.222 10.78C229.742 10.4067 232.028 9.89333 234.082 9.23999ZM284.533 44.94C292.746 44.94 299.14 47.46 303.713 52.5C308.38 57.4467 310.713 65.1933 310.713 75.74H261.293L261.153 73.08H297.273C297.46 68.5067 297.086 64.3067 296.153 60.48C295.22 56.56 293.726 53.4333 291.673 51.1C289.713 48.7667 287.146 47.6 283.973 47.6C279.68 47.6 275.853 49.7467 272.493 54.04C269.226 58.3333 267.266 65.1467 266.613 74.48L267.033 75.04C266.846 76.44 266.706 77.98 266.613 79.66C266.52 81.34 266.473 83.02 266.473 84.7C266.473 91.0467 267.5 96.5067 269.553 101.08C271.606 105.653 274.266 109.153 277.533 111.58C280.893 113.913 284.346 115.08 287.893 115.08C290.693 115.08 293.353 114.66 295.873 113.82C298.393 112.887 300.726 111.393 302.873 109.34C305.02 107.287 306.886 104.533 308.473 101.08L311.273 102.2C310.246 105.28 308.566 108.267 306.233 111.16C303.9 114.053 300.96 116.433 297.413 118.3C293.866 120.073 289.76 120.96 285.093 120.96C278.373 120.96 272.586 119.42 267.733 116.34C262.973 113.26 259.286 109.013 256.673 103.6C254.153 98.0933 252.893 91.7933 252.893 84.7C252.893 76.4867 254.2 69.44 256.813 63.56C259.426 57.5867 263.113 53.0133 267.873 49.84C272.633 46.5733 278.186 44.94 284.533 44.94ZM395.117 20.72C398.663 20.72 401.603 21.14 403.937 21.98C406.27 22.7267 408.183 23.7067 409.677 24.92C410.89 25.8533 411.87 26.88 412.617 28C413.363 29.12 413.923 30.24 414.297 31.36C414.67 32.48 414.857 33.5533 414.857 34.58C414.857 36.9133 414.017 38.7333 412.337 40.04C410.75 41.3467 408.977 42 407.017 42C405.15 42 403.47 41.3933 401.977 40.18C400.483 38.9667 399.737 37.24 399.737 35C399.737 32.9467 400.437 31.22 401.837 29.82C403.237 28.3267 405.01 27.4867 407.157 27.3C406.783 26.0867 405.617 25.06 403.657 24.22C401.79 23.2867 399.41 22.82 396.517 22.82C391.757 22.82 387.837 24.2667 384.757 27.16C381.77 29.96 380.277 34.0667 380.277 39.48C380.277 42.0933 380.743 44.7533 381.677 47.46C382.703 50.1667 384.617 52.8267 387.417 55.44C389.003 55.16 390.637 54.9733 392.317 54.88C393.997 54.6933 395.257 54.6 396.097 54.6C397.777 54.6 399.13 54.88 400.157 55.44C401.183 56 401.697 56.7933 401.697 57.82C401.697 58.66 401.323 59.3133 400.577 59.78C399.923 60.2467 398.99 60.48 397.777 60.48C396.003 60.48 394.137 60.1067 392.177 59.36C390.217 58.52 388.677 57.8667 387.557 57.4C382.143 58.9867 377.757 61.6 374.397 65.24C371.037 68.7867 369.357 73.8267 369.357 80.36C369.357 86.8 371.037 92.26 374.397 96.74C377.757 101.22 382.237 104.673 387.837 107.1C393.53 109.433 399.877 110.6 406.877 110.6C411.823 110.6 416.49 110.04 420.877 108.92C425.357 107.707 429.277 105.98 432.637 103.74C436.09 101.5 438.797 98.84 440.757 95.76C442.717 92.5867 443.697 88.9933 443.697 84.98C443.697 83.2067 443.323 80.9667 442.577 78.26C441.83 75.46 440.29 72.7533 437.957 70.14C435.623 67.4333 432.03 65.3333 427.177 63.84L428.857 62.44C435.67 64.4933 440.523 67.8067 443.417 72.38C446.31 76.86 447.757 81.9 447.757 87.5C447.757 93.1 446.077 98.4667 442.717 103.6C439.357 108.733 434.503 112.933 428.157 116.2C421.81 119.373 414.11 120.96 405.057 120.96C398.99 120.96 393.203 120.167 387.697 118.58C382.283 116.993 377.477 114.707 373.277 111.72C369.077 108.64 365.763 104.953 363.337 100.66C360.91 96.3667 359.697 91.5133 359.697 86.1C359.697 81.06 360.677 76.7667 362.637 73.22C364.597 69.58 367.023 66.5933 369.917 64.26C372.81 61.9267 375.703 60.1533 378.597 58.94C381.49 57.6333 383.823 56.7467 385.597 56.28C382.517 54.88 379.903 53.2467 377.757 51.38C375.703 49.42 374.117 47.32 372.997 45.08C371.97 42.7467 371.457 40.46 371.457 38.22C371.457 35.98 371.97 33.8333 372.997 31.78C374.023 29.6333 375.517 27.72 377.477 26.04C379.437 24.36 381.863 23.0533 384.757 22.12C387.743 21.1867 391.197 20.72 395.117 20.72ZM446.077 17.92C451.863 17.92 456.717 19.6 460.637 22.96C464.557 26.2267 466.517 30.8467 466.517 36.82C466.517 39.9933 465.91 42.84 464.697 45.36C463.577 47.7867 461.99 49.9333 459.937 51.8C457.977 53.6667 455.737 55.2067 453.217 56.42C451.07 57.4467 448.223 58.5667 444.677 59.78C441.223 60.9933 437.49 62.2067 433.477 63.42C429.557 64.6333 425.777 65.8467 422.137 67.06C418.59 68.18 415.697 69.16 413.457 70C410.003 71.3067 407.063 72.94 404.637 74.9C402.303 76.7667 401.137 79.1933 401.137 82.18C401.137 84.6067 401.837 86.66 403.237 88.34C404.637 90.02 406.317 91.28 408.277 92.12C410.33 92.96 412.243 93.38 414.017 93.38C414.857 93.38 415.883 93.2867 417.097 93.1C418.403 92.82 419.57 92.4467 420.597 91.98C421.623 91.5133 422.23 90.9533 422.417 90.3C420.923 90.02 419.43 89.3667 417.937 88.34C416.537 87.22 415.837 85.4933 415.837 83.16C415.837 80.92 416.583 79.1467 418.077 77.84C419.57 76.5333 421.39 75.88 423.537 75.88C425.777 75.88 427.55 76.58 428.857 77.98C430.257 79.38 430.957 81.2 430.957 83.44C430.957 86.0533 430.07 88.2933 428.297 90.16C426.617 91.9333 424.47 93.2867 421.857 94.22C419.337 95.06 416.817 95.48 414.297 95.48C411.683 95.48 409.023 94.92 406.317 93.8C403.61 92.68 401.37 90.9533 399.597 88.62C397.823 86.1933 396.937 83.02 396.937 79.1C396.937 75.8333 397.637 72.94 399.037 70.42C400.53 67.9 402.723 65.66 405.617 63.7C408.51 61.74 412.057 60.06 416.257 58.66C419.057 57.7267 422.463 56.7 426.477 55.58C430.49 54.46 434.597 53.2467 438.797 51.94C443.09 50.6333 446.963 49.1867 450.417 47.6C455.083 45.4533 458.257 43.26 459.937 41.02C461.617 38.78 462.457 36.4933 462.457 34.16C462.457 31.4533 461.71 29.0733 460.217 27.02C458.723 24.8733 456.717 23.1933 454.197 21.98C451.77 20.6733 449.11 20.02 446.217 20.02C445.097 20.02 444.163 20.1133 443.417 20.3C442.67 20.4867 442.203 20.8133 442.017 21.28C443.323 21.9333 444.303 22.8667 444.957 24.08C445.61 25.2933 445.937 26.5067 445.937 27.72C445.937 29.68 445.143 31.3133 443.557 32.62C442.063 33.9267 440.243 34.58 438.097 34.58C436.323 34.58 434.643 34.02 433.057 32.9C431.47 31.6867 430.677 29.9133 430.677 27.58C430.677 25.1533 431.47 23.24 433.057 21.84C434.737 20.44 436.743 19.46 439.077 18.9C441.503 18.2467 443.837 17.92 446.077 17.92ZM510.048 19.88C512.008 19.9733 514.575 20.0667 517.748 20.16C520.921 20.2533 524.048 20.3 527.128 20.3C531.515 20.3 535.715 20.2533 539.728 20.16C543.741 20.0667 546.588 20.02 548.268 20.02C558.068 20.02 565.441 22.0733 570.388 26.18C575.335 30.2867 577.808 35.56 577.808 42C577.808 45.2667 577.108 48.4867 575.708 51.66C574.401 54.74 572.161 57.5867 568.988 60.2C565.908 62.72 561.755 64.7733 556.528 66.36V66.64C563.901 67.5733 569.641 69.3467 573.748 71.96C577.948 74.48 580.888 77.4667 582.568 80.92C584.248 84.3733 585.088 88.0133 585.088 91.84C585.088 97.16 583.735 101.873 581.028 105.98C578.415 109.993 574.588 113.167 569.548 115.5C564.508 117.833 558.488 119 551.488 119C549.435 119 546.355 118.953 542.248 118.86C538.141 118.673 533.195 118.58 527.408 118.58C524.141 118.58 520.921 118.627 517.748 118.72C514.575 118.72 512.008 118.813 510.048 119V116.2C513.221 116.013 515.601 115.64 517.188 115.08C518.868 114.52 519.988 113.4 520.548 111.72C521.108 110.04 521.388 107.52 521.388 104.16V34.72C521.388 31.2667 521.108 28.7467 520.548 27.16C519.988 25.48 518.868 24.36 517.188 23.8C515.601 23.1467 513.221 22.7733 510.048 22.68V19.88ZM544.768 22.68C540.475 22.68 537.675 23.4733 536.368 25.06C535.061 26.6467 534.408 29.8667 534.408 34.72V104.16C534.408 107.427 534.688 109.9 535.248 111.58C535.808 113.26 536.835 114.38 538.328 114.94C539.821 115.5 542.015 115.78 544.908 115.78C554.055 115.78 560.681 113.68 564.788 109.48C568.988 105.187 571.088 99.12 571.088 91.28C571.088 84.0933 569.128 78.54 565.208 74.62C561.381 70.7 555.035 68.74 546.168 68.74H531.748C531.748 68.74 531.748 68.3667 531.748 67.62C531.748 66.78 531.748 66.36 531.748 66.36H543.788C549.295 66.36 553.541 65.3333 556.528 63.28C559.515 61.1333 561.568 58.3333 562.688 54.88C563.808 51.3333 564.368 47.5533 564.368 43.54C564.368 36.6333 562.828 31.4533 559.748 28C556.761 24.4533 551.768 22.68 544.768 22.68ZM629.475 44.94C637.688 44.94 644.081 47.46 648.655 52.5C653.321 57.4467 655.655 65.1933 655.655 75.74H606.235L606.095 73.08H642.215C642.401 68.5067 642.028 64.3067 641.095 60.48C640.161 56.56 638.668 53.4333 636.615 51.1C634.655 48.7667 632.088 47.6 628.915 47.6C624.621 47.6 620.795 49.7467 617.435 54.04C614.168 58.3333 612.208 65.1467 611.555 74.48L611.975 75.04C611.788 76.44 611.648 77.98 611.555 79.66C611.461 81.34 611.415 83.02 611.415 84.7C611.415 91.0467 612.441 96.5067 614.495 101.08C616.548 105.653 619.208 109.153 622.475 111.58C625.835 113.913 629.288 115.08 632.835 115.08C635.635 115.08 638.295 114.66 640.815 113.82C643.335 112.887 645.668 111.393 647.815 109.34C649.961 107.287 651.828 104.533 653.415 101.08L656.215 102.2C655.188 105.28 653.508 108.267 651.175 111.16C648.841 114.053 645.901 116.433 642.355 118.3C638.808 120.073 634.701 120.96 630.035 120.96C623.315 120.96 617.528 119.42 612.675 116.34C607.915 113.26 604.228 109.013 601.615 103.6C599.095 98.0933 597.835 91.7933 597.835 84.7C597.835 76.4867 599.141 69.44 601.755 63.56C604.368 57.5867 608.055 53.0133 612.815 49.84C617.575 46.5733 623.128 44.94 629.475 44.94ZM686.155 119.98C682.328 119.98 679.015 119.28 676.215 117.88C673.415 116.387 671.268 114.333 669.775 111.72C668.375 109.107 667.675 106.073 667.675 102.62C667.675 98.5133 668.608 95.1533 670.475 92.54C672.435 89.9267 674.908 87.8267 677.895 86.24C680.882 84.6533 684.008 83.3467 687.275 82.32C690.635 81.2 693.808 80.1733 696.795 79.24C699.782 78.2133 702.208 77.0467 704.075 75.74C706.035 74.4333 707.015 72.7067 707.015 70.56V61.88C707.015 57.96 706.408 54.9733 705.195 52.92C704.075 50.8667 702.535 49.5133 700.575 48.86C698.615 48.1133 696.422 47.74 693.995 47.74C691.662 47.74 689.142 48.0667 686.435 48.72C683.822 49.3733 681.722 50.7267 680.135 52.78C681.908 53.1533 683.448 54.0867 684.755 55.58C686.062 57.0733 686.715 58.9867 686.715 61.32C686.715 63.6533 685.968 65.52 684.475 66.92C682.982 68.2267 681.068 68.88 678.735 68.88C676.028 68.88 674.022 68.04 672.715 66.36C671.502 64.5867 670.895 62.6267 670.895 60.48C670.895 58.0533 671.502 56.0933 672.715 54.6C673.928 53.1067 675.468 51.7067 677.335 50.4C679.482 48.9067 682.235 47.6467 685.595 46.62C689.048 45.5 692.922 44.94 697.215 44.94C701.042 44.94 704.308 45.4067 707.015 46.34C709.722 47.18 711.962 48.44 713.735 50.12C716.162 52.36 717.748 55.1133 718.495 58.38C719.242 61.5533 719.615 65.38 719.615 69.86V108.78C719.615 111.113 719.942 112.793 720.595 113.82C721.342 114.847 722.462 115.36 723.955 115.36C724.982 115.36 725.962 115.127 726.895 114.66C727.828 114.193 728.948 113.447 730.255 112.42L731.795 114.8C729.835 116.293 727.968 117.553 726.195 118.58C724.422 119.513 722.042 119.98 719.055 119.98C716.348 119.98 714.108 119.513 712.335 118.58C710.562 117.647 709.208 116.293 708.275 114.52C707.435 112.653 707.015 110.32 707.015 107.52C704.495 111.72 701.462 114.847 697.915 116.9C694.462 118.953 690.542 119.98 686.155 119.98ZM691.195 114.38C694.275 114.38 697.122 113.493 699.735 111.72C702.442 109.947 704.868 107.287 707.015 103.74V76.3C705.895 77.8867 704.262 79.24 702.115 80.36C699.968 81.3867 697.635 82.46 695.115 83.58C692.595 84.6067 690.168 85.8667 687.835 87.36C685.595 88.76 683.728 90.6267 682.235 92.96C680.742 95.2933 679.995 98.3267 679.995 102.06C679.995 105.793 680.975 108.78 682.935 111.02C684.988 113.26 687.742 114.38 691.195 114.38ZM799.561 45.36V103.88C799.561 108.08 800.308 111.207 801.801 113.26C803.388 115.22 806.188 116.2 810.201 116.2V119.14C807.308 118.86 804.415 118.72 801.521 118.72C798.815 118.72 796.201 118.86 793.681 119.14C791.255 119.42 789.015 119.933 786.961 120.68V104.16C784.628 110.227 781.315 114.567 777.021 117.18C772.821 119.7 768.481 120.96 764.001 120.96C760.735 120.96 757.888 120.493 755.461 119.56C753.035 118.627 751.028 117.32 749.441 115.64C747.668 113.773 746.455 111.347 745.801 108.36C745.148 105.373 744.821 101.687 744.821 97.3V62.16C744.821 57.96 744.075 54.88 742.581 52.92C741.088 50.8667 738.288 49.84 734.181 49.84V46.9C737.168 47.18 740.061 47.32 742.861 47.32C745.568 47.32 748.135 47.18 750.561 46.9C753.081 46.5267 755.368 46.0133 757.421 45.36V100.38C757.421 103.273 757.608 105.933 757.981 108.36C758.355 110.787 759.288 112.747 760.781 114.24C762.275 115.733 764.701 116.48 768.061 116.48C771.701 116.48 774.921 115.36 777.721 113.12C780.615 110.88 782.855 107.847 784.441 104.02C786.121 100.193 786.961 95.9 786.961 91.14V62.16C786.961 57.96 786.215 54.88 784.721 52.92C783.228 50.8667 780.428 49.84 776.321 49.84V46.9C779.308 47.18 782.201 47.32 785.001 47.32C787.708 47.32 790.275 47.18 792.701 46.9C795.221 46.5267 797.508 46.0133 799.561 45.36ZM839.889 23.66V47.04H860.609V49.84H839.889V104.02C839.889 108.407 840.682 111.487 842.269 113.26C843.856 115.033 846.049 115.92 848.849 115.92C851.649 115.92 854.076 114.8 856.129 112.56C858.182 110.227 859.956 106.353 861.449 100.94L864.249 101.64C863.316 107.053 861.449 111.627 858.649 115.36C855.942 119.093 851.742 120.96 846.049 120.96C842.876 120.96 840.262 120.54 838.209 119.7C836.156 118.953 834.336 117.833 832.749 116.34C830.696 114.193 829.249 111.627 828.409 108.64C827.662 105.653 827.289 101.687 827.289 96.74V49.84H813.849V47.04H827.289V25.62C829.622 25.5267 831.862 25.34 834.009 25.06C836.156 24.78 838.116 24.3133 839.889 23.66ZM931.941 46.9V49.7C930.168 49.8867 928.535 50.68 927.041 52.08C925.548 53.48 924.148 55.9533 922.841 59.5L899.881 119.7H897.501L871.741 57.68C869.968 54.04 868.195 51.8467 866.421 51.1C864.741 50.26 863.341 49.84 862.221 49.84V46.9C864.275 47.18 866.421 47.4133 868.661 47.6C870.901 47.6933 873.328 47.74 875.941 47.74C878.835 47.74 881.868 47.6467 885.041 47.46C888.308 47.2733 891.341 47.0867 894.141 46.9V49.84C891.808 49.84 889.708 50.0267 887.841 50.4C886.068 50.68 884.948 51.66 884.481 53.34C884.015 54.9267 884.575 57.68 886.161 61.6L903.381 104.3L902.541 104.58L918.501 62.86C919.715 59.78 920.181 57.3533 919.901 55.58C919.715 53.7133 918.781 52.3133 917.101 51.38C915.421 50.4467 912.901 49.8867 909.541 49.7V46.9C911.221 46.9933 912.668 47.0867 913.881 47.18C915.095 47.18 916.261 47.2267 917.381 47.32C918.595 47.32 919.901 47.32 921.301 47.32C923.448 47.32 925.361 47.2733 927.041 47.18C928.815 47.0867 930.448 46.9933 931.941 46.9ZM899.881 119.7L895.121 131.88C894.188 134.213 893.208 136.173 892.181 137.76C891.248 139.347 890.221 140.653 889.101 141.68C887.608 143.08 885.835 144.013 883.781 144.48C881.728 145.04 879.861 145.32 878.181 145.32C876.408 145.32 874.775 144.993 873.281 144.34C871.881 143.687 870.761 142.707 869.921 141.4C869.081 140.187 868.661 138.693 868.661 136.92C868.661 134.68 869.315 132.86 870.621 131.46C871.928 130.153 873.748 129.5 876.081 129.5C878.041 129.5 879.721 130.06 881.121 131.18C882.521 132.3 883.221 133.933 883.221 136.08C883.221 137.667 882.848 138.973 882.101 140C881.355 141.027 880.468 141.82 879.441 142.38C879.628 142.473 879.768 142.52 879.861 142.52C880.048 142.52 880.188 142.52 880.281 142.52C882.801 142.52 885.041 141.633 887.001 139.86C888.961 138.18 890.688 135.427 892.181 131.6L897.221 118.58L899.881 119.7Z" fill="white"/>
<path d="M389.053 196.008V196.488C388.509 196.504 388.093 196.584 387.805 196.728C387.533 196.872 387.349 197.104 387.253 197.424C387.157 197.744 387.109 198.2 387.109 198.792V213.12C387.013 213.12 386.917 213.12 386.821 213.12C386.741 213.12 386.653 213.12 386.557 213.12L376.477 197.544V210.216C376.477 210.792 376.525 211.248 376.621 211.584C376.733 211.904 376.941 212.136 377.245 212.28C377.565 212.408 378.037 212.488 378.661 212.52V213C378.373 212.968 377.997 212.952 377.533 212.952C377.069 212.936 376.629 212.928 376.213 212.928C375.813 212.928 375.405 212.936 374.989 212.952C374.589 212.952 374.253 212.968 373.981 213V212.52C374.525 212.488 374.933 212.408 375.205 212.28C375.493 212.136 375.685 211.904 375.781 211.584C375.877 211.248 375.925 210.792 375.925 210.216V198.552C375.925 197.96 375.877 197.528 375.781 197.256C375.685 196.968 375.493 196.776 375.205 196.68C374.933 196.568 374.525 196.504 373.981 196.488V196.008C374.253 196.024 374.589 196.04 374.989 196.056C375.405 196.072 375.813 196.08 376.213 196.08C376.565 196.08 376.901 196.072 377.221 196.056C377.541 196.04 377.829 196.024 378.085 196.008L386.557 209.064V198.792C386.557 198.2 386.501 197.744 386.389 197.424C386.293 197.104 386.085 196.872 385.765 196.728C385.461 196.584 384.997 196.504 384.373 196.488V196.008C384.661 196.024 385.037 196.04 385.501 196.056C385.981 196.072 386.421 196.08 386.821 196.08C387.237 196.08 387.645 196.072 388.045 196.056C388.461 196.04 388.797 196.024 389.053 196.008ZM396.024 200.304C397.432 200.304 398.528 200.736 399.312 201.6C400.112 202.448 400.512 203.776 400.512 205.584H392.04L392.016 205.128H398.208C398.24 204.344 398.176 203.624 398.016 202.968C397.856 202.296 397.6 201.76 397.248 201.36C396.912 200.96 396.472 200.76 395.928 200.76C395.192 200.76 394.536 201.128 393.96 201.864C393.4 202.6 393.064 203.768 392.952 205.368L393.024 205.464C392.992 205.704 392.968 205.968 392.952 206.256C392.936 206.544 392.928 206.832 392.928 207.12C392.928 208.208 393.104 209.144 393.456 209.928C393.808 210.712 394.264 211.312 394.824 211.728C395.4 212.128 395.992 212.328 396.6 212.328C397.08 212.328 397.536 212.256 397.968 212.112C398.4 211.952 398.8 211.696 399.168 211.344C399.536 210.992 399.856 210.52 400.128 209.928L400.608 210.12C400.432 210.648 400.144 211.16 399.744 211.656C399.344 212.152 398.84 212.56 398.232 212.88C397.624 213.184 396.92 213.336 396.12 213.336C394.968 213.336 393.976 213.072 393.144 212.544C392.328 212.016 391.696 211.288 391.248 210.36C390.816 209.416 390.6 208.336 390.6 207.12C390.6 205.712 390.824 204.504 391.272 203.496C391.72 202.472 392.352 201.688 393.168 201.144C393.984 200.584 394.936 200.304 396.024 200.304ZM406.775 200.64V201.144C406.375 201.144 406.023 201.176 405.719 201.24C405.415 201.288 405.215 201.448 405.119 201.72C405.023 201.992 405.095 202.472 405.335 203.16L407.831 210.312L407.663 210.288L411.191 200.544L411.671 200.736L407.279 213.12C407.215 213.12 407.151 213.12 407.087 213.12C407.023 213.12 406.951 213.12 406.871 213.12L402.935 202.488C402.679 201.848 402.423 201.464 402.167 201.336C401.927 201.208 401.719 201.144 401.543 201.144V200.64C401.863 200.688 402.191 200.728 402.527 200.76C402.879 200.776 403.255 200.784 403.655 200.784C404.151 200.784 404.671 200.768 405.215 200.736C405.775 200.704 406.295 200.672 406.775 200.64ZM419.951 200.64V201.12C419.647 201.152 419.359 201.288 419.087 201.528C418.831 201.752 418.599 202.176 418.391 202.8L414.911 213.12C414.847 213.12 414.783 213.12 414.719 213.12C414.655 213.12 414.583 213.12 414.503 213.12L410.639 203.304L411.191 200.544C411.287 200.544 411.375 200.544 411.455 200.544C411.551 200.544 411.647 200.544 411.743 200.544L415.487 210.456L415.295 210.6L417.671 203.376C417.847 202.832 417.911 202.408 417.863 202.104C417.831 201.784 417.671 201.552 417.383 201.408C417.111 201.248 416.687 201.152 416.111 201.12V200.64C416.399 200.656 416.647 200.672 416.855 200.688C417.063 200.688 417.263 200.696 417.455 200.712C417.663 200.712 417.887 200.712 418.127 200.712C418.495 200.712 418.823 200.704 419.111 200.688C419.415 200.672 419.695 200.656 419.951 200.64ZM431.979 194.232C432.427 194.232 432.819 194.296 433.155 194.424C433.507 194.536 433.811 194.688 434.067 194.88C434.307 195.072 434.491 195.296 434.619 195.552C434.747 195.808 434.811 196.08 434.811 196.368C434.811 196.736 434.691 197.04 434.451 197.28C434.211 197.52 433.907 197.64 433.539 197.64C433.187 197.64 432.875 197.528 432.603 197.304C432.347 197.064 432.219 196.744 432.219 196.344C432.219 196.008 432.307 195.736 432.483 195.528C432.675 195.32 432.923 195.184 433.227 195.12C433.179 194.976 433.051 194.856 432.843 194.76C432.651 194.648 432.387 194.592 432.051 194.592C431.683 194.592 431.363 194.672 431.091 194.832C430.835 194.992 430.635 195.208 430.491 195.48C430.299 195.816 430.179 196.32 430.131 196.992C430.083 197.648 430.059 198.664 430.059 200.04V200.664H432.627V201.144H430.059V210.528C430.059 211.312 430.283 211.84 430.731 212.112C431.195 212.368 431.819 212.496 432.603 212.496V213C432.235 212.984 431.715 212.968 431.043 212.952C430.371 212.92 429.659 212.904 428.907 212.904C428.363 212.904 427.819 212.92 427.275 212.952C426.747 212.968 426.347 212.984 426.075 213V212.496C426.731 212.496 427.195 212.376 427.467 212.136C427.755 211.896 427.899 211.44 427.899 210.768V201.144H425.979V200.664H427.899C427.899 199.72 427.939 198.928 428.019 198.288C428.099 197.648 428.227 197.104 428.403 196.656C428.579 196.192 428.819 195.784 429.123 195.432C429.443 195.064 429.851 194.776 430.347 194.568C430.843 194.344 431.387 194.232 431.979 194.232ZM437.428 213.168C436.772 213.168 436.204 213.048 435.724 212.808C435.244 212.552 434.876 212.2 434.62 211.752C434.38 211.304 434.26 210.784 434.26 210.192C434.26 209.488 434.42 208.912 434.74 208.464C435.076 208.016 435.5 207.656 436.012 207.384C436.524 207.112 437.06 206.888 437.62 206.712C438.196 206.52 438.74 206.344 439.252 206.184C439.764 206.008 440.18 205.808 440.5 205.584C440.836 205.36 441.004 205.064 441.004 204.696V203.208C441.004 202.536 440.9 202.024 440.692 201.672C440.5 201.32 440.236 201.088 439.9 200.976C439.564 200.848 439.188 200.784 438.772 200.784C438.372 200.784 437.94 200.84 437.476 200.952C437.028 201.064 436.668 201.296 436.396 201.648C436.7 201.712 436.964 201.872 437.188 202.128C437.412 202.384 437.524 202.712 437.524 203.112C437.524 203.512 437.396 203.832 437.14 204.072C436.884 204.296 436.556 204.408 436.156 204.408C435.692 204.408 435.348 204.264 435.124 203.976C434.916 203.672 434.812 203.336 434.812 202.968C434.812 202.552 434.916 202.216 435.124 201.96C435.332 201.704 435.596 201.464 435.916 201.24C436.284 200.984 436.756 200.768 437.332 200.592C437.924 200.4 438.588 200.304 439.324 200.304C439.98 200.304 440.54 200.384 441.004 200.544C441.468 200.688 441.852 200.904 442.156 201.192C442.572 201.576 442.844 202.048 442.972 202.608C443.1 203.152 443.164 203.808 443.164 204.576V211.248C443.164 211.648 443.22 211.936 443.332 212.112C443.46 212.288 443.652 212.376 443.908 212.376C444.084 212.376 444.252 212.336 444.412 212.256C444.572 212.176 444.764 212.048 444.988 211.872L445.252 212.28C444.916 212.536 444.596 212.752 444.292 212.928C443.988 213.088 443.58 213.168 443.068 213.168C442.604 213.168 442.22 213.088 441.916 212.928C441.612 212.768 441.38 212.536 441.22 212.232C441.076 211.912 441.004 211.512 441.004 211.032C440.572 211.752 440.052 212.288 439.444 212.64C438.852 212.992 438.18 213.168 437.428 213.168ZM438.292 212.208C438.82 212.208 439.308 212.056 439.756 211.752C440.22 211.448 440.636 210.992 441.004 210.384V205.68C440.812 205.952 440.532 206.184 440.164 206.376C439.796 206.552 439.396 206.736 438.964 206.928C438.532 207.104 438.116 207.32 437.716 207.576C437.332 207.816 437.012 208.136 436.756 208.536C436.5 208.936 436.372 209.456 436.372 210.096C436.372 210.736 436.54 211.248 436.876 211.632C437.228 212.016 437.7 212.208 438.292 212.208ZM450.269 200.304C450.909 200.304 451.453 200.408 451.901 200.616C452.349 200.824 452.677 201.016 452.885 201.192C453.413 201.624 453.733 201.336 453.845 200.328H454.397C454.365 200.776 454.341 201.312 454.325 201.936C454.309 202.544 454.301 203.368 454.301 204.408H453.749C453.653 203.816 453.485 203.24 453.245 202.68C453.021 202.12 452.685 201.664 452.237 201.312C451.789 200.944 451.205 200.76 450.485 200.76C449.925 200.76 449.453 200.92 449.069 201.24C448.701 201.544 448.517 202 448.517 202.608C448.517 203.088 448.661 203.504 448.949 203.856C449.237 204.192 449.613 204.512 450.077 204.816C450.541 205.104 451.045 205.424 451.589 205.776C452.197 206.16 452.749 206.552 453.245 206.952C453.741 207.352 454.133 207.792 454.421 208.272C454.725 208.752 454.877 209.32 454.877 209.976C454.877 210.712 454.685 211.328 454.301 211.824C453.917 212.32 453.413 212.696 452.789 212.952C452.181 213.208 451.509 213.336 450.773 213.336C450.421 213.336 450.085 213.304 449.765 213.24C449.461 213.192 449.165 213.112 448.877 213C448.717 212.92 448.549 212.824 448.373 212.712C448.213 212.6 448.053 212.48 447.893 212.352C447.733 212.224 447.589 212.232 447.461 212.376C447.333 212.504 447.237 212.768 447.173 213.168H446.621C446.653 212.656 446.677 212.032 446.693 211.296C446.709 210.56 446.717 209.584 446.717 208.368H447.269C447.381 209.264 447.541 210.048 447.749 210.72C447.957 211.392 448.285 211.92 448.733 212.304C449.181 212.672 449.805 212.856 450.605 212.856C450.925 212.856 451.245 212.784 451.565 212.64C451.901 212.496 452.181 212.256 452.405 211.92C452.629 211.584 452.741 211.136 452.741 210.576C452.741 209.872 452.485 209.296 451.973 208.848C451.461 208.4 450.813 207.928 450.029 207.432C449.453 207.064 448.909 206.696 448.397 206.328C447.901 205.96 447.493 205.544 447.173 205.08C446.869 204.616 446.717 204.056 446.717 203.4C446.717 202.68 446.877 202.096 447.197 201.648C447.533 201.184 447.973 200.848 448.517 200.64C449.061 200.416 449.645 200.304 450.269 200.304ZM460.476 194.208V203.184C460.892 202.096 461.468 201.344 462.204 200.928C462.956 200.512 463.74 200.304 464.556 200.304C465.164 200.304 465.668 200.384 466.068 200.544C466.484 200.704 466.828 200.928 467.1 201.216C467.404 201.536 467.62 201.936 467.748 202.416C467.876 202.896 467.94 203.544 467.94 204.36V210.768C467.94 211.44 468.076 211.896 468.348 212.136C468.636 212.376 469.108 212.496 469.764 212.496V213C469.492 212.984 469.076 212.968 468.516 212.952C467.956 212.92 467.412 212.904 466.884 212.904C466.356 212.904 465.836 212.92 465.324 212.952C464.828 212.968 464.452 212.984 464.196 213V212.496C464.772 212.496 465.18 212.376 465.42 212.136C465.66 211.896 465.78 211.44 465.78 210.768V203.832C465.78 203.336 465.74 202.88 465.66 202.464C465.58 202.048 465.396 201.712 465.108 201.456C464.836 201.2 464.412 201.072 463.836 201.072C463.18 201.072 462.596 201.256 462.084 201.624C461.588 201.992 461.196 202.504 460.908 203.16C460.62 203.816 460.476 204.568 460.476 205.416V210.768C460.476 211.44 460.596 211.896 460.836 212.136C461.076 212.376 461.484 212.496 462.06 212.496V213C461.804 212.984 461.42 212.968 460.908 212.952C460.412 212.92 459.9 212.904 459.372 212.904C458.844 212.904 458.3 212.92 457.74 212.952C457.18 212.968 456.764 212.984 456.492 213V212.496C457.148 212.496 457.612 212.376 457.884 212.136C458.172 211.896 458.316 211.44 458.316 210.768V197.088C458.316 196.368 458.188 195.84 457.932 195.504C457.676 195.152 457.196 194.976 456.492 194.976V194.472C457.004 194.52 457.5 194.544 457.98 194.544C458.444 194.544 458.884 194.52 459.3 194.472C459.732 194.408 460.124 194.32 460.476 194.208ZM473.553 194.64C473.969 194.64 474.329 194.792 474.633 195.096C474.937 195.4 475.089 195.76 475.089 196.176C475.089 196.592 474.937 196.952 474.633 197.256C474.329 197.56 473.969 197.712 473.553 197.712C473.137 197.712 472.777 197.56 472.473 197.256C472.169 196.952 472.017 196.592 472.017 196.176C472.017 195.76 472.169 195.4 472.473 195.096C472.777 194.792 473.137 194.64 473.553 194.64ZM474.801 200.376V210.768C474.801 211.44 474.937 211.896 475.209 212.136C475.497 212.376 475.969 212.496 476.625 212.496V213C476.353 212.984 475.937 212.968 475.377 212.952C474.833 212.92 474.281 212.904 473.721 212.904C473.177 212.904 472.625 212.92 472.065 212.952C471.505 212.968 471.089 212.984 470.817 213V212.496C471.473 212.496 471.937 212.376 472.209 212.136C472.497 211.896 472.641 211.44 472.641 210.768V203.256C472.641 202.536 472.513 202.008 472.257 201.672C472.001 201.32 471.521 201.144 470.817 201.144V200.64C471.329 200.688 471.825 200.712 472.305 200.712C472.769 200.712 473.209 200.688 473.625 200.64C474.057 200.576 474.449 200.488 474.801 200.376ZM483.728 200.304C484.752 200.304 485.672 200.528 486.488 200.976C487.304 201.424 487.952 202.128 488.432 203.088C488.928 204.048 489.176 205.296 489.176 206.832C489.176 208.368 488.928 209.616 488.432 210.576C487.952 211.52 487.304 212.216 486.488 212.664C485.672 213.112 484.752 213.336 483.728 213.336C482.72 213.336 481.8 213.112 480.968 212.664C480.152 212.216 479.496 211.52 479 210.576C478.52 209.616 478.28 208.368 478.28 206.832C478.28 205.296 478.52 204.048 479 203.088C479.496 202.128 480.152 201.424 480.968 200.976C481.8 200.528 482.72 200.304 483.728 200.304ZM483.728 200.784C482.816 200.784 482.064 201.256 481.472 202.2C480.896 203.144 480.608 204.688 480.608 206.832C480.608 208.976 480.896 210.52 481.472 211.464C482.064 212.392 482.816 212.856 483.728 212.856C484.64 212.856 485.384 212.392 485.96 211.464C486.552 210.52 486.848 208.976 486.848 206.832C486.848 204.688 486.552 203.144 485.96 202.2C485.384 201.256 484.64 200.784 483.728 200.784ZM499.061 200.304C499.669 200.304 500.173 200.384 500.573 200.544C500.989 200.704 501.333 200.928 501.605 201.216C501.909 201.536 502.125 201.936 502.253 202.416C502.381 202.896 502.445 203.544 502.445 204.36V210.768C502.445 211.44 502.581 211.896 502.853 212.136C503.141 212.376 503.613 212.496 504.269 212.496V213C503.997 212.984 503.581 212.968 503.021 212.952C502.461 212.92 501.917 212.904 501.389 212.904C500.861 212.904 500.341 212.92 499.829 212.952C499.333 212.968 498.957 212.984 498.701 213V212.496C499.277 212.496 499.685 212.376 499.925 212.136C500.165 211.896 500.285 211.44 500.285 210.768V203.832C500.285 203.336 500.245 202.88 500.165 202.464C500.085 202.048 499.901 201.712 499.613 201.456C499.341 201.2 498.917 201.072 498.341 201.072C497.669 201.072 497.077 201.264 496.565 201.648C496.069 202.032 495.677 202.56 495.389 203.232C495.117 203.888 494.981 204.624 494.981 205.44V210.768C494.981 211.44 495.101 211.896 495.341 212.136C495.581 212.376 495.989 212.496 496.565 212.496V213C496.309 212.984 495.925 212.968 495.413 212.952C494.917 212.92 494.405 212.904 493.877 212.904C493.349 212.904 492.805 212.92 492.245 212.952C491.685 212.968 491.269 212.984 490.997 213V212.496C491.653 212.496 492.117 212.376 492.389 212.136C492.677 211.896 492.821 211.44 492.821 210.768V203.256C492.821 202.536 492.693 202.008 492.437 201.672C492.181 201.32 491.701 201.144 490.997 201.144V200.64C491.509 200.688 492.005 200.712 492.485 200.712C492.949 200.712 493.389 200.688 493.805 200.64C494.237 200.576 494.629 200.488 494.981 200.376V203.208C495.397 202.12 495.973 201.368 496.709 200.952C497.461 200.52 498.245 200.304 499.061 200.304ZM518.422 200.304C519.734 200.304 520.822 200.848 521.686 201.936C522.55 203.008 522.982 204.64 522.982 206.832C522.982 208.272 522.734 209.48 522.238 210.456C521.758 211.416 521.11 212.136 520.294 212.616C519.478 213.096 518.59 213.336 517.63 213.336C516.83 213.336 516.054 213.112 515.302 212.664C514.566 212.2 514.014 211.52 513.646 210.624L514.126 210.888C514.526 211.528 515.022 212.008 515.614 212.328C516.206 212.632 516.814 212.784 517.438 212.784C518.51 212.784 519.31 212.304 519.838 211.344C520.382 210.368 520.654 208.864 520.654 206.832C520.654 205.536 520.55 204.456 520.342 203.592C520.134 202.728 519.814 202.088 519.382 201.672C518.95 201.24 518.398 201.024 517.726 201.024C516.99 201.024 516.302 201.36 515.662 202.032C515.038 202.688 514.654 203.656 514.51 204.936L514.222 204.6C514.398 203.24 514.87 202.184 515.638 201.432C516.422 200.68 517.35 200.304 518.422 200.304ZM514.678 194.208V211.752C514.47 211.928 514.254 212.112 514.03 212.304C513.822 212.48 513.614 212.656 513.406 212.832C513.198 213.008 512.982 213.192 512.758 213.384L512.35 213.216C512.414 212.992 512.454 212.768 512.47 212.544C512.502 212.304 512.518 212.064 512.518 211.824V197.088C512.518 196.368 512.39 195.84 512.134 195.504C511.878 195.152 511.398 194.976 510.694 194.976V194.472C511.206 194.52 511.702 194.544 512.182 194.544C512.646 194.544 513.086 194.52 513.502 194.472C513.934 194.408 514.326 194.32 514.678 194.208ZM532.281 200.304C532.713 200.304 533.089 200.392 533.409 200.568C533.745 200.744 534.001 200.976 534.177 201.264C534.369 201.536 534.465 201.848 534.465 202.2C534.465 202.6 534.337 202.952 534.081 203.256C533.841 203.56 533.513 203.712 533.097 203.712C532.761 203.712 532.465 203.608 532.209 203.4C531.953 203.176 531.825 202.864 531.825 202.464C531.825 202.16 531.905 201.904 532.065 201.696C532.241 201.472 532.433 201.296 532.641 201.168C532.529 201.008 532.361 200.928 532.137 200.928C531.641 200.928 531.185 201.08 530.769 201.384C530.353 201.672 530.001 202.048 529.713 202.512C529.425 202.976 529.201 203.472 529.041 204C528.881 204.512 528.801 204.992 528.801 205.44V210.528C528.801 211.312 529.025 211.84 529.473 212.112C529.937 212.368 530.561 212.496 531.345 212.496V213C530.977 212.984 530.457 212.968 529.785 212.952C529.113 212.92 528.401 212.904 527.649 212.904C527.105 212.904 526.561 212.92 526.017 212.952C525.489 212.968 525.089 212.984 524.817 213V212.496C525.473 212.496 525.937 212.376 526.209 212.136C526.497 211.896 526.641 211.44 526.641 210.768V203.256C526.641 202.536 526.513 202.008 526.257 201.672C526.001 201.32 525.521 201.144 524.817 201.144V200.64C525.329 200.688 525.825 200.712 526.305 200.712C526.769 200.712 527.209 200.688 527.625 200.64C528.057 200.576 528.449 200.488 528.801 200.376V203.376C528.977 202.912 529.225 202.448 529.545 201.984C529.881 201.504 530.281 201.104 530.745 200.784C531.209 200.464 531.721 200.304 532.281 200.304ZM538.913 213.168C538.257 213.168 537.689 213.048 537.209 212.808C536.729 212.552 536.361 212.2 536.105 211.752C535.865 211.304 535.745 210.784 535.745 210.192C535.745 209.488 535.905 208.912 536.225 208.464C536.561 208.016 536.985 207.656 537.497 207.384C538.009 207.112 538.545 206.888 539.105 206.712C539.681 206.52 540.225 206.344 540.737 206.184C541.249 206.008 541.665 205.808 541.985 205.584C542.321 205.36 542.489 205.064 542.489 204.696V203.208C542.489 202.536 542.385 202.024 542.177 201.672C541.985 201.32 541.721 201.088 541.385 200.976C541.049 200.848 540.673 200.784 540.257 200.784C539.857 200.784 539.425 200.84 538.961 200.952C538.513 201.064 538.153 201.296 537.881 201.648C538.185 201.712 538.449 201.872 538.673 202.128C538.897 202.384 539.009 202.712 539.009 203.112C539.009 203.512 538.881 203.832 538.625 204.072C538.369 204.296 538.041 204.408 537.641 204.408C537.177 204.408 536.833 204.264 536.609 203.976C536.401 203.672 536.297 203.336 536.297 202.968C536.297 202.552 536.401 202.216 536.609 201.96C536.817 201.704 537.081 201.464 537.401 201.24C537.769 200.984 538.241 200.768 538.817 200.592C539.409 200.4 540.073 200.304 540.809 200.304C541.465 200.304 542.025 200.384 542.489 200.544C542.953 200.688 543.337 200.904 543.641 201.192C544.057 201.576 544.329 202.048 544.457 202.608C544.585 203.152 544.649 203.808 544.649 204.576V211.248C544.649 211.648 544.705 211.936 544.817 212.112C544.945 212.288 545.137 212.376 545.393 212.376C545.569 212.376 545.737 212.336 545.897 212.256C546.057 212.176 546.249 212.048 546.473 211.872L546.737 212.28C546.401 212.536 546.081 212.752 545.777 212.928C545.473 213.088 545.065 213.168 544.553 213.168C544.089 213.168 543.705 213.088 543.401 212.928C543.097 212.768 542.865 212.536 542.705 212.232C542.561 211.912 542.489 211.512 542.489 211.032C542.057 211.752 541.537 212.288 540.929 212.64C540.337 212.992 539.665 213.168 538.913 213.168ZM539.777 212.208C540.305 212.208 540.793 212.056 541.241 211.752C541.705 211.448 542.121 210.992 542.489 210.384V205.68C542.297 205.952 542.017 206.184 541.649 206.376C541.281 206.552 540.881 206.736 540.449 206.928C540.017 207.104 539.601 207.32 539.201 207.576C538.817 207.816 538.497 208.136 538.241 208.536C537.985 208.936 537.857 209.456 537.857 210.096C537.857 210.736 538.025 211.248 538.361 211.632C538.713 212.016 539.185 212.208 539.777 212.208ZM555.522 200.304C556.13 200.304 556.634 200.384 557.034 200.544C557.45 200.704 557.794 200.928 558.066 201.216C558.37 201.536 558.586 201.936 558.714 202.416C558.842 202.896 558.906 203.544 558.906 204.36V210.768C558.906 211.44 559.042 211.896 559.314 212.136C559.602 212.376 560.074 212.496 560.73 212.496V213C560.458 212.984 560.042 212.968 559.482 212.952C558.922 212.92 558.378 212.904 557.85 212.904C557.322 212.904 556.802 212.92 556.29 212.952C555.794 212.968 555.418 212.984 555.162 213V212.496C555.738 212.496 556.146 212.376 556.386 212.136C556.626 211.896 556.746 211.44 556.746 210.768V203.832C556.746 203.336 556.706 202.88 556.626 202.464C556.546 202.048 556.362 201.712 556.074 201.456C555.802 201.2 555.378 201.072 554.802 201.072C554.13 201.072 553.538 201.264 553.026 201.648C552.53 202.032 552.138 202.56 551.85 203.232C551.578 203.888 551.442 204.624 551.442 205.44V210.768C551.442 211.44 551.562 211.896 551.802 212.136C552.042 212.376 552.45 212.496 553.026 212.496V213C552.77 212.984 552.386 212.968 551.874 212.952C551.378 212.92 550.866 212.904 550.338 212.904C549.81 212.904 549.266 212.92 548.706 212.952C548.146 212.968 547.73 212.984 547.458 213V212.496C548.114 212.496 548.578 212.376 548.85 212.136C549.138 211.896 549.282 211.44 549.282 210.768V203.256C549.282 202.536 549.154 202.008 548.898 201.672C548.642 201.32 548.162 201.144 547.458 201.144V200.64C547.97 200.688 548.466 200.712 548.946 200.712C549.41 200.712 549.85 200.688 550.266 200.64C550.698 200.576 551.09 200.488 551.442 200.376V203.208C551.858 202.12 552.434 201.368 553.17 200.952C553.922 200.52 554.706 200.304 555.522 200.304ZM572.698 194.184V210.384C572.698 211.104 572.826 211.64 573.082 211.992C573.354 212.328 573.834 212.496 574.522 212.496V213C574.026 212.952 573.53 212.928 573.034 212.928C572.57 212.928 572.122 212.952 571.69 213C571.274 213.048 570.89 213.136 570.538 213.264V197.064C570.538 196.344 570.41 195.816 570.154 195.48C569.898 195.128 569.418 194.952 568.714 194.952V194.448C569.226 194.496 569.722 194.52 570.202 194.52C570.666 194.52 571.106 194.496 571.522 194.448C571.954 194.384 572.346 194.296 572.698 194.184ZM567.658 200.304C568.362 200.304 569.018 200.472 569.626 200.808C570.25 201.144 570.666 201.72 570.874 202.536L570.562 202.776C570.338 202.104 569.986 201.616 569.506 201.312C569.042 201.008 568.49 200.856 567.85 200.856C566.906 200.856 566.114 201.344 565.474 202.32C564.85 203.296 564.546 204.8 564.562 206.832C564.562 208.128 564.682 209.208 564.922 210.072C565.178 210.92 565.546 211.56 566.026 211.992C566.522 212.408 567.122 212.616 567.826 212.616C568.498 212.616 569.106 212.328 569.65 211.752C570.194 211.176 570.522 210.328 570.634 209.208L570.922 209.544C570.794 210.76 570.402 211.696 569.746 212.352C569.106 213.008 568.234 213.336 567.13 213.336C566.138 213.336 565.266 213.096 564.514 212.616C563.778 212.136 563.21 211.416 562.81 210.456C562.426 209.496 562.234 208.288 562.234 206.832C562.234 205.376 562.482 204.168 562.978 203.208C563.49 202.232 564.154 201.504 564.97 201.024C565.802 200.544 566.698 200.304 567.658 200.304Z" fill="white"/>
</svg>
